<mxfile host="65bd71144e">
    <diagram id="Q6HeKkt2WActpDO48box" name="Page-1">
        <mxGraphModel dx="369" dy="1762" grid="1" gridSize="10" guides="1" tooltips="1" connect="1" arrows="1" fold="1" page="1" pageScale="1" pageWidth="900" pageHeight="1600" math="0" shadow="0">
            <root>
                <mxCell id="0"/>
                <mxCell id="1" parent="0"/>
                <mxCell id="193" value="" style="group" parent="1" vertex="1" connectable="0">
                    <mxGeometry x="2350" y="19" width="490" height="1100" as="geometry"/>
                </mxCell>
                <mxCell id="139" value="" style="ellipse;whiteSpace=wrap;html=1;aspect=fixed;" parent="193" vertex="1">
                    <mxGeometry x="203" y="126" width="30" height="30" as="geometry"/>
                </mxCell>
                <mxCell id="141" value="" style="ellipse;whiteSpace=wrap;html=1;aspect=fixed;direction=south;" parent="193" vertex="1">
                    <mxGeometry x="203" y="209" width="30" height="30" as="geometry"/>
                </mxCell>
                <mxCell id="137" value="" style="endArrow=none;html=1;strokeWidth=3;entryX=0.5;entryY=0.467;entryDx=0;entryDy=0;entryPerimeter=0;" parent="193" source="141" target="139" edge="1">
                    <mxGeometry width="50" height="50" relative="1" as="geometry">
                        <mxPoint x="198" y="240" as="sourcePoint"/>
                        <mxPoint x="248" y="190" as="targetPoint"/>
                    </mxGeometry>
                </mxCell>
                <mxCell id="143" value="" style="ellipse;whiteSpace=wrap;html=1;aspect=fixed;" parent="193" vertex="1">
                    <mxGeometry x="203" y="260" width="30" height="30" as="geometry"/>
                </mxCell>
                <mxCell id="145" value="" style="ellipse;whiteSpace=wrap;html=1;aspect=fixed;" parent="193" vertex="1">
                    <mxGeometry x="304" y="279" width="30" height="30" as="geometry"/>
                </mxCell>
                <mxCell id="147" value="" style="ellipse;whiteSpace=wrap;html=1;aspect=fixed;fontStyle=1" parent="193" vertex="1">
                    <mxGeometry x="93" y="284" width="30" height="30" as="geometry"/>
                </mxCell>
                <mxCell id="149" value="" style="ellipse;whiteSpace=wrap;html=1;aspect=fixed;" parent="193" vertex="1">
                    <mxGeometry x="365" y="448" width="30" height="30" as="geometry"/>
                </mxCell>
                <mxCell id="151" value="" style="ellipse;whiteSpace=wrap;html=1;aspect=fixed;fontStyle=1" parent="193" vertex="1">
                    <mxGeometry x="50" y="453" width="30" height="30" as="geometry"/>
                </mxCell>
                <mxCell id="153" value="" style="ellipse;whiteSpace=wrap;html=1;aspect=fixed;" parent="193" vertex="1">
                    <mxGeometry x="403" y="610" width="30" height="30" as="geometry"/>
                </mxCell>
                <mxCell id="155" value="" style="ellipse;whiteSpace=wrap;html=1;aspect=fixed;fontStyle=1" parent="193" vertex="1">
                    <mxGeometry x="11" y="615" width="30" height="30" as="geometry"/>
                </mxCell>
                <mxCell id="156" value="" style="ellipse;whiteSpace=wrap;html=1;aspect=fixed;" parent="193" vertex="1">
                    <mxGeometry x="404" y="651" width="30" height="30" as="geometry"/>
                </mxCell>
                <mxCell id="158" value="" style="ellipse;whiteSpace=wrap;html=1;aspect=fixed;fontStyle=1" parent="193" vertex="1">
                    <mxGeometry x="10" y="656" width="30" height="30" as="geometry"/>
                </mxCell>
                <mxCell id="160" value="" style="ellipse;whiteSpace=wrap;html=1;aspect=fixed;fontStyle=1" parent="193" vertex="1">
                    <mxGeometry x="203" y="555" width="30" height="30" as="geometry"/>
                </mxCell>
                <mxCell id="161" value="" style="ellipse;whiteSpace=wrap;html=1;aspect=fixed;fontStyle=1" parent="193" vertex="1">
                    <mxGeometry x="123" y="587" width="30" height="30" as="geometry"/>
                </mxCell>
                <mxCell id="163" value="" style="ellipse;whiteSpace=wrap;html=1;aspect=fixed;fontStyle=1" parent="193" vertex="1">
                    <mxGeometry x="284" y="587" width="30" height="30" as="geometry"/>
                </mxCell>
                <mxCell id="165" value="" style="ellipse;whiteSpace=wrap;html=1;aspect=fixed;fontStyle=1" parent="193" vertex="1">
                    <mxGeometry x="124" y="792" width="30" height="30" as="geometry"/>
                </mxCell>
                <mxCell id="167" value="" style="ellipse;whiteSpace=wrap;html=1;aspect=fixed;fontStyle=1" parent="193" vertex="1">
                    <mxGeometry x="285" y="792" width="30" height="30" as="geometry"/>
                </mxCell>
                <mxCell id="169" value="" style="ellipse;whiteSpace=wrap;html=1;aspect=fixed;fontStyle=1" parent="193" vertex="1">
                    <mxGeometry x="125" y="1009" width="30" height="30" as="geometry"/>
                </mxCell>
                <mxCell id="171" value="" style="ellipse;whiteSpace=wrap;html=1;aspect=fixed;fontStyle=1" parent="193" vertex="1">
                    <mxGeometry x="286" y="1009" width="30" height="30" as="geometry"/>
                </mxCell>
                <mxCell id="172" value="" style="endArrow=none;html=1;strokeWidth=3;" parent="193" source="141" target="143" edge="1">
                    <mxGeometry width="50" height="50" relative="1" as="geometry">
                        <mxPoint x="170" y="400" as="sourcePoint"/>
                        <mxPoint x="220" y="350" as="targetPoint"/>
                    </mxGeometry>
                </mxCell>
                <mxCell id="173" value="" style="endArrow=none;html=1;strokeWidth=3;" parent="193" source="147" target="143" edge="1">
                    <mxGeometry width="50" height="50" relative="1" as="geometry">
                        <mxPoint x="200" y="330" as="sourcePoint"/>
                        <mxPoint x="250" y="280" as="targetPoint"/>
                    </mxGeometry>
                </mxCell>
                <mxCell id="174" value="" style="endArrow=none;html=1;strokeWidth=3;" parent="193" source="145" target="143" edge="1">
                    <mxGeometry width="50" height="50" relative="1" as="geometry">
                        <mxPoint x="84.67937441416439" y="315.91520392745826" as="sourcePoint"/>
                        <mxPoint x="215.3217532252113" y="288.09015721574497" as="targetPoint"/>
                    </mxGeometry>
                </mxCell>
                <mxCell id="175" value="" style="endArrow=none;html=1;strokeWidth=3;" parent="193" source="145" target="149" edge="1">
                    <mxGeometry width="50" height="50" relative="1" as="geometry">
                        <mxPoint x="308" y="365" as="sourcePoint"/>
                        <mxPoint x="182.67824677478848" y="273.09015721574497" as="targetPoint"/>
                    </mxGeometry>
                </mxCell>
                <mxCell id="176" value="" style="endArrow=none;html=1;strokeWidth=3;" parent="193" source="143" target="160" edge="1">
                    <mxGeometry width="50" height="50" relative="1" as="geometry">
                        <mxPoint x="397.3736070551886" y="332.57855416105383" as="sourcePoint"/>
                        <mxPoint x="464.5641477814929" y="474.4508374347213" as="targetPoint"/>
                    </mxGeometry>
                </mxCell>
                <mxCell id="177" value="" style="endArrow=none;html=1;strokeWidth=3;" parent="193" source="147" target="151" edge="1">
                    <mxGeometry width="50" height="50" relative="1" as="geometry">
                        <mxPoint x="277.93534542941825" y="289.999860374931" as="sourcePoint"/>
                        <mxPoint x="276.060975104248" y="520.0001243549449" as="targetPoint"/>
                    </mxGeometry>
                </mxCell>
                <mxCell id="178" value="" style="endArrow=none;html=1;strokeWidth=3;" parent="193" source="160" target="161" edge="1">
                    <mxGeometry width="50" height="50" relative="1" as="geometry">
                        <mxPoint x="63.62639294474434" y="332.57855416119696" as="sourcePoint"/>
                        <mxPoint x="-2.6334918565987664" y="474.41811596074376" as="targetPoint"/>
                    </mxGeometry>
                </mxCell>
                <mxCell id="179" value="" style="endArrow=none;html=1;strokeWidth=3;" parent="193" source="160" target="163" edge="1">
                    <mxGeometry width="50" height="50" relative="1" as="geometry">
                        <mxPoint x="216.4621444042" y="554.585295418049" as="sourcePoint"/>
                        <mxPoint x="159.54819023891537" y="602.4271580914252" as="targetPoint"/>
                    </mxGeometry>
                </mxCell>
                <mxCell id="180" value="" style="endArrow=none;html=1;strokeWidth=3;" parent="193" source="149" target="153" edge="1">
                    <mxGeometry width="50" height="50" relative="1" as="geometry">
                        <mxPoint x="158.5378555958" y="539.5852954180492" as="sourcePoint"/>
                        <mxPoint x="216.45180976108486" y="587.4271580914257" as="targetPoint"/>
                    </mxGeometry>
                </mxCell>
                <mxCell id="181" value="" style="endArrow=none;html=1;strokeWidth=3;" parent="193" source="153" target="156" edge="1">
                    <mxGeometry width="50" height="50" relative="1" as="geometry">
                        <mxPoint x="393.34237202254576" y="487.6228775986366" as="sourcePoint"/>
                        <mxPoint x="424.5644099940855" y="620.3987424748643" as="targetPoint"/>
                    </mxGeometry>
                </mxCell>
                <mxCell id="182" value="" style="endArrow=none;html=1;strokeWidth=3;" parent="193" source="163" target="167" edge="1">
                    <mxGeometry width="50" height="50" relative="1" as="geometry">
                        <mxPoint x="507.7543178020219" y="664.9481863757323" as="sourcePoint"/>
                        <mxPoint x="506.1805372815504" y="676.0465277670285" as="targetPoint"/>
                    </mxGeometry>
                </mxCell>
                <mxCell id="183" value="" style="endArrow=none;html=1;strokeWidth=3;" parent="193" source="161" target="165" edge="1">
                    <mxGeometry width="50" height="50" relative="1" as="geometry">
                        <mxPoint x="309" y="627" as="sourcePoint"/>
                        <mxPoint x="310" y="802" as="targetPoint"/>
                    </mxGeometry>
                </mxCell>
                <mxCell id="184" value="" style="endArrow=none;html=1;strokeWidth=3;" parent="193" source="151" target="155" edge="1">
                    <mxGeometry width="50" height="50" relative="1" as="geometry">
                        <mxPoint x="256" y="617" as="sourcePoint"/>
                        <mxPoint x="257" y="792" as="targetPoint"/>
                    </mxGeometry>
                </mxCell>
                <mxCell id="185" value="" style="endArrow=none;html=1;strokeWidth=3;" parent="193" source="155" target="158" edge="1">
                    <mxGeometry width="50" height="50" relative="1" as="geometry">
                        <mxPoint x="73.36196562445821" y="492.5521375021674" as="sourcePoint"/>
                        <mxPoint x="39.61564219280922" y="625.442282750005" as="targetPoint"/>
                    </mxGeometry>
                </mxCell>
                <mxCell id="186" value="" style="endArrow=none;html=1;strokeWidth=3;" parent="193" source="169" target="165" edge="1">
                    <mxGeometry width="50" height="50" relative="1" as="geometry">
                        <mxPoint x="148" y="890" as="sourcePoint"/>
                        <mxPoint x="149" y="802" as="targetPoint"/>
                    </mxGeometry>
                </mxCell>
                <mxCell id="187" value="" style="endArrow=none;html=1;strokeWidth=3;" parent="193" source="171" target="167" edge="1">
                    <mxGeometry width="50" height="50" relative="1" as="geometry">
                        <mxPoint x="150" y="1019" as="sourcePoint"/>
                        <mxPoint x="149" y="832" as="targetPoint"/>
                    </mxGeometry>
                </mxCell>
                <mxCell id="188" style="edgeStyle=orthogonalEdgeStyle;html=1;exitX=1;exitY=0.5;exitDx=0;exitDy=0;entryX=1;entryY=0.5;entryDx=0;entryDy=0;strokeWidth=1;fontSize=20;endArrow=none;endFill=0;strokeColor=#FF3333;" parent="193" source="191" target="156" edge="1">
                    <mxGeometry relative="1" as="geometry">
                        <Array as="points">
                            <mxPoint x="450" y="15"/>
                            <mxPoint x="450" y="666"/>
                        </Array>
                    </mxGeometry>
                </mxCell>
                <mxCell id="190" value="" style="ellipse;whiteSpace=wrap;html=1;aspect=fixed;fontStyle=1" parent="193" vertex="1">
                    <mxGeometry x="203" y="470" width="30" height="30" as="geometry"/>
                </mxCell>
                <mxCell id="191" value="Full Body" style="text;html=1;strokeColor=none;fillColor=none;align=center;verticalAlign=middle;whiteSpace=wrap;rounded=0;fontSize=28;" parent="193" vertex="1">
                    <mxGeometry x="140" y="-5" width="160" height="40" as="geometry"/>
                </mxCell>
                <mxCell id="138" style="edgeStyle=orthogonalEdgeStyle;html=1;exitX=1;exitY=0.5;exitDx=0;exitDy=0;entryX=0.5;entryY=1;entryDx=0;entryDy=0;strokeWidth=3;fontSize=20;endArrow=none;endFill=0;strokeColor=#FF3333;" parent="193" source="139" target="191" edge="1">
                    <mxGeometry relative="1" as="geometry">
                        <mxPoint x="286" y="84.99999999999989" as="targetPoint"/>
                        <Array as="points">
                            <mxPoint x="270" y="141"/>
                            <mxPoint x="270" y="80"/>
                            <mxPoint x="220" y="80"/>
                        </Array>
                    </mxGeometry>
                </mxCell>
                <mxCell id="140" style="edgeStyle=orthogonalEdgeStyle;html=1;exitX=0.5;exitY=0;exitDx=0;exitDy=0;entryX=0.5;entryY=1;entryDx=0;entryDy=0;strokeWidth=3;fontSize=20;endArrow=none;endFill=0;strokeColor=#FF3333;" parent="193" source="141" target="191" edge="1">
                    <mxGeometry relative="1" as="geometry">
                        <mxPoint x="286" y="84.99999999999989" as="targetPoint"/>
                        <Array as="points">
                            <mxPoint x="270" y="224"/>
                            <mxPoint x="270" y="80"/>
                            <mxPoint x="220" y="80"/>
                        </Array>
                    </mxGeometry>
                </mxCell>
                <mxCell id="192" style="edgeStyle=orthogonalEdgeStyle;html=1;entryX=1;entryY=0.5;entryDx=0;entryDy=0;strokeWidth=3;fontSize=20;endArrow=none;endFill=0;strokeColor=#FF3333;exitX=0;exitY=0.5;exitDx=0;exitDy=0;" parent="193" source="191" target="161" edge="1">
                    <mxGeometry relative="1" as="geometry">
                        <mxPoint x="-30" y="770" as="sourcePoint"/>
                        <Array as="points">
                            <mxPoint y="15"/>
                            <mxPoint y="770"/>
                            <mxPoint x="180" y="770"/>
                            <mxPoint x="180" y="602"/>
                        </Array>
                    </mxGeometry>
                </mxCell>
                <mxCell id="142" style="edgeStyle=orthogonalEdgeStyle;html=1;entryX=0.5;entryY=1;entryDx=0;entryDy=0;strokeWidth=3;fontSize=20;endArrow=none;endFill=0;strokeColor=#FF3333;" parent="193" source="143" target="191" edge="1">
                    <mxGeometry relative="1" as="geometry">
                        <Array as="points">
                            <mxPoint x="270" y="275"/>
                            <mxPoint x="270" y="80"/>
                            <mxPoint x="220" y="80"/>
                        </Array>
                    </mxGeometry>
                </mxCell>
                <mxCell id="144" style="edgeStyle=orthogonalEdgeStyle;html=1;exitX=1;exitY=0.5;exitDx=0;exitDy=0;entryX=1;entryY=0.5;entryDx=0;entryDy=0;strokeWidth=3;fontSize=20;endArrow=none;endFill=0;strokeColor=#FF3333;" parent="193" source="145" target="191" edge="1">
                    <mxGeometry relative="1" as="geometry">
                        <Array as="points">
                            <mxPoint x="450" y="294"/>
                            <mxPoint x="450" y="15"/>
                        </Array>
                    </mxGeometry>
                </mxCell>
                <mxCell id="146" style="edgeStyle=orthogonalEdgeStyle;html=1;exitX=0;exitY=0.5;exitDx=0;exitDy=0;entryX=0;entryY=0.5;entryDx=0;entryDy=0;strokeWidth=3;fontSize=20;endArrow=none;endFill=0;strokeColor=#FF3333;" parent="193" source="147" target="191" edge="1">
                    <mxGeometry relative="1" as="geometry">
                        <Array as="points">
                            <mxPoint x="93" y="300"/>
                            <mxPoint y="300"/>
                            <mxPoint y="15"/>
                        </Array>
                    </mxGeometry>
                </mxCell>
                <mxCell id="148" style="edgeStyle=orthogonalEdgeStyle;html=1;exitX=1;exitY=0.5;exitDx=0;exitDy=0;entryX=1;entryY=0.5;entryDx=0;entryDy=0;strokeWidth=3;fontSize=20;endArrow=none;endFill=0;strokeColor=#FF3333;" parent="193" source="149" target="191" edge="1">
                    <mxGeometry relative="1" as="geometry">
                        <Array as="points">
                            <mxPoint x="450" y="463"/>
                            <mxPoint x="450" y="15"/>
                        </Array>
                    </mxGeometry>
                </mxCell>
                <mxCell id="150" style="edgeStyle=orthogonalEdgeStyle;html=1;entryX=0;entryY=0.5;entryDx=0;entryDy=0;strokeWidth=3;fontSize=20;endArrow=none;endFill=0;strokeColor=#FF3333;" parent="193" source="151" target="191" edge="1">
                    <mxGeometry relative="1" as="geometry">
                        <Array as="points">
                            <mxPoint y="468"/>
                            <mxPoint y="15"/>
                        </Array>
                    </mxGeometry>
                </mxCell>
                <mxCell id="152" style="edgeStyle=orthogonalEdgeStyle;html=1;entryX=1;entryY=0.5;entryDx=0;entryDy=0;strokeWidth=1;fontSize=20;endArrow=none;endFill=0;strokeColor=#FF3333;" parent="193" source="153" target="191" edge="1">
                    <mxGeometry relative="1" as="geometry">
                        <Array as="points">
                            <mxPoint x="450" y="625"/>
                            <mxPoint x="450" y="15"/>
                        </Array>
                    </mxGeometry>
                </mxCell>
                <mxCell id="154" style="edgeStyle=orthogonalEdgeStyle;html=1;entryX=0;entryY=0.5;entryDx=0;entryDy=0;strokeWidth=3;fontSize=20;endArrow=none;endFill=0;strokeColor=#FF3333;" parent="193" source="155" target="191" edge="1">
                    <mxGeometry relative="1" as="geometry">
                        <Array as="points">
                            <mxPoint y="631"/>
                            <mxPoint y="15"/>
                        </Array>
                    </mxGeometry>
                </mxCell>
                <mxCell id="157" style="edgeStyle=orthogonalEdgeStyle;html=1;exitX=0;exitY=0.5;exitDx=0;exitDy=0;entryX=0;entryY=0.5;entryDx=0;entryDy=0;strokeWidth=3;fontSize=20;endArrow=none;endFill=0;strokeColor=#FF3333;" parent="193" source="158" target="191" edge="1">
                    <mxGeometry relative="1" as="geometry">
                        <mxPoint x="-27.5" y="641" as="targetPoint"/>
                    </mxGeometry>
                </mxCell>
                <mxCell id="159" style="edgeStyle=orthogonalEdgeStyle;html=1;exitX=1;exitY=0.5;exitDx=0;exitDy=0;entryX=0.5;entryY=1;entryDx=0;entryDy=0;strokeColor=#FF3333;strokeWidth=3;fontSize=20;endArrow=none;endFill=0;" parent="193" source="160" target="191" edge="1">
                    <mxGeometry relative="1" as="geometry">
                        <Array as="points">
                            <mxPoint x="270" y="570"/>
                            <mxPoint x="270" y="80"/>
                            <mxPoint x="220" y="80"/>
                        </Array>
                    </mxGeometry>
                </mxCell>
                <mxCell id="162" style="edgeStyle=orthogonalEdgeStyle;html=1;exitX=0;exitY=0.5;exitDx=0;exitDy=0;entryX=1;entryY=0.5;entryDx=0;entryDy=0;strokeWidth=3;fontSize=20;endArrow=none;endFill=0;strokeColor=#FF3333;" parent="193" source="163" target="191" edge="1">
                    <mxGeometry relative="1" as="geometry">
                        <Array as="points">
                            <mxPoint x="260" y="602"/>
                            <mxPoint x="260" y="760"/>
                            <mxPoint x="450" y="760"/>
                            <mxPoint x="450" y="15"/>
                        </Array>
                    </mxGeometry>
                </mxCell>
                <mxCell id="164" style="edgeStyle=orthogonalEdgeStyle;html=1;exitX=1;exitY=0.5;exitDx=0;exitDy=0;strokeWidth=3;fontSize=20;endArrow=none;endFill=0;strokeColor=#FF3333;entryX=0;entryY=0.5;entryDx=0;entryDy=0;" parent="193" source="165" target="191" edge="1">
                    <mxGeometry relative="1" as="geometry">
                        <mxPoint y="960" as="targetPoint"/>
                        <Array as="points">
                            <mxPoint x="180" y="807"/>
                            <mxPoint x="180" y="960"/>
                            <mxPoint y="960"/>
                            <mxPoint y="15"/>
                        </Array>
                    </mxGeometry>
                </mxCell>
                <mxCell id="166" style="edgeStyle=orthogonalEdgeStyle;html=1;exitX=0;exitY=0.5;exitDx=0;exitDy=0;strokeWidth=3;fontSize=20;endArrow=none;endFill=0;strokeColor=#FF3333;entryX=1;entryY=0.5;entryDx=0;entryDy=0;" parent="193" source="167" target="191" edge="1">
                    <mxGeometry relative="1" as="geometry">
                        <mxPoint x="250" y="860" as="targetPoint"/>
                        <Array as="points">
                            <mxPoint x="260" y="807"/>
                            <mxPoint x="260" y="950"/>
                            <mxPoint x="450" y="950"/>
                            <mxPoint x="450" y="15"/>
                        </Array>
                    </mxGeometry>
                </mxCell>
                <mxCell id="168" style="edgeStyle=orthogonalEdgeStyle;html=1;strokeWidth=3;fontSize=20;endArrow=none;endFill=0;strokeColor=#FF3333;exitX=1;exitY=0.5;exitDx=0;exitDy=0;entryX=0;entryY=0.5;entryDx=0;entryDy=0;" parent="193" source="169" target="191" edge="1">
                    <mxGeometry relative="1" as="geometry">
                        <mxPoint x="60" y="1060" as="sourcePoint"/>
                        <mxPoint x="100" y="50" as="targetPoint"/>
                        <Array as="points">
                            <mxPoint x="180" y="1024"/>
                            <mxPoint x="180" y="1060"/>
                            <mxPoint y="1060"/>
                            <mxPoint y="15"/>
                        </Array>
                    </mxGeometry>
                </mxCell>
                <mxCell id="170" style="edgeStyle=orthogonalEdgeStyle;html=1;exitX=0;exitY=0.5;exitDx=0;exitDy=0;strokeWidth=3;fontSize=20;endArrow=none;endFill=0;strokeColor=#FF3333;entryX=1;entryY=0.5;entryDx=0;entryDy=0;" parent="193" source="171" target="191" edge="1">
                    <mxGeometry relative="1" as="geometry">
                        <mxPoint x="217.99999999999977" y="1080" as="targetPoint"/>
                        <Array as="points">
                            <mxPoint x="260" y="1024"/>
                            <mxPoint x="260" y="1060"/>
                            <mxPoint x="450" y="1060"/>
                            <mxPoint x="450" y="15"/>
                        </Array>
                    </mxGeometry>
                </mxCell>
                <mxCell id="189" style="edgeStyle=orthogonalEdgeStyle;html=1;exitX=1;exitY=0.5;exitDx=0;exitDy=0;entryX=0.5;entryY=1;entryDx=0;entryDy=0;strokeWidth=3;fontSize=20;endArrow=none;endFill=0;strokeColor=#FF3333;" parent="193" source="190" target="191" edge="1">
                    <mxGeometry relative="1" as="geometry">
                        <Array as="points">
                            <mxPoint x="270" y="485"/>
                            <mxPoint x="270" y="80"/>
                            <mxPoint x="220" y="80"/>
                        </Array>
                    </mxGeometry>
                </mxCell>
                <mxCell id="194" value="" style="group" parent="1" vertex="1" connectable="0">
                    <mxGeometry x="57" y="91" width="725.5" height="969" as="geometry"/>
                </mxCell>
                <mxCell id="21" value="" style="endArrow=none;html=1;strokeWidth=3;entryX=0.5;entryY=1;entryDx=0;entryDy=0;fontSize=29;" parent="194" source="3" target="2" edge="1">
                    <mxGeometry width="50" height="50" relative="1" as="geometry">
                        <mxPoint x="320" y="170" as="sourcePoint"/>
                        <mxPoint x="370" y="120" as="targetPoint"/>
                    </mxGeometry>
                </mxCell>
                <mxCell id="2" value="" style="ellipse;whiteSpace=wrap;html=1;aspect=fixed;fontSize=29;" parent="194" vertex="1">
                    <mxGeometry x="325" y="56" width="30" height="30" as="geometry"/>
                </mxCell>
                <mxCell id="3" value="" style="ellipse;whiteSpace=wrap;html=1;aspect=fixed;direction=south;fontSize=29;" parent="194" vertex="1">
                    <mxGeometry x="325" y="139" width="30" height="30" as="geometry"/>
                </mxCell>
                <mxCell id="4" value="" style="ellipse;whiteSpace=wrap;html=1;aspect=fixed;fontSize=29;" parent="194" vertex="1">
                    <mxGeometry x="325" y="190" width="30" height="30" as="geometry"/>
                </mxCell>
                <mxCell id="5" value="" style="ellipse;whiteSpace=wrap;html=1;aspect=fixed;fontSize=29;" parent="194" vertex="1">
                    <mxGeometry x="424" y="209" width="30" height="30" as="geometry"/>
                </mxCell>
                <mxCell id="6" value="" style="ellipse;whiteSpace=wrap;html=1;aspect=fixed;fontStyle=1;fontSize=29;" parent="194" vertex="1">
                    <mxGeometry x="213" y="214" width="30" height="30" as="geometry"/>
                </mxCell>
                <mxCell id="7" value="" style="ellipse;whiteSpace=wrap;html=1;aspect=fixed;fontSize=29;" parent="194" vertex="1">
                    <mxGeometry x="485" y="378" width="30" height="30" as="geometry"/>
                </mxCell>
                <mxCell id="8" value="" style="ellipse;whiteSpace=wrap;html=1;aspect=fixed;fontStyle=1;fontSize=29;" parent="194" vertex="1">
                    <mxGeometry x="170" y="383" width="30" height="30" as="geometry"/>
                </mxCell>
                <mxCell id="9" value="" style="ellipse;whiteSpace=wrap;html=1;aspect=fixed;fontSize=29;" parent="194" vertex="1">
                    <mxGeometry x="523" y="540" width="30" height="30" as="geometry"/>
                </mxCell>
                <mxCell id="10" value="" style="ellipse;whiteSpace=wrap;html=1;aspect=fixed;fontStyle=1;fontSize=29;" parent="194" vertex="1">
                    <mxGeometry x="153" y="545" width="30" height="30" as="geometry"/>
                </mxCell>
                <mxCell id="11" value="" style="ellipse;whiteSpace=wrap;html=1;aspect=fixed;fontSize=29;" parent="194" vertex="1">
                    <mxGeometry x="519" y="581" width="30" height="30" as="geometry"/>
                </mxCell>
                <mxCell id="12" value="" style="ellipse;whiteSpace=wrap;html=1;aspect=fixed;fontStyle=1;fontSize=29;" parent="194" vertex="1">
                    <mxGeometry x="157" y="586" width="30" height="30" as="geometry"/>
                </mxCell>
                <mxCell id="13" value="" style="ellipse;whiteSpace=wrap;html=1;aspect=fixed;fontStyle=1;fontSize=29;" parent="194" vertex="1">
                    <mxGeometry x="323" y="485" width="30" height="30" as="geometry"/>
                </mxCell>
                <mxCell id="14" value="" style="ellipse;whiteSpace=wrap;html=1;aspect=fixed;fontStyle=1;fontSize=29;" parent="194" vertex="1">
                    <mxGeometry x="243" y="517" width="30" height="30" as="geometry"/>
                </mxCell>
                <mxCell id="15" value="" style="ellipse;whiteSpace=wrap;html=1;aspect=fixed;fontStyle=1;fontSize=29;" parent="194" vertex="1">
                    <mxGeometry x="404" y="517" width="30" height="30" as="geometry"/>
                </mxCell>
                <mxCell id="16" value="" style="ellipse;whiteSpace=wrap;html=1;aspect=fixed;fontStyle=1;fontSize=29;" parent="194" vertex="1">
                    <mxGeometry x="244" y="722" width="30" height="30" as="geometry"/>
                </mxCell>
                <mxCell id="17" value="" style="ellipse;whiteSpace=wrap;html=1;aspect=fixed;fontStyle=1;fontSize=29;" parent="194" vertex="1">
                    <mxGeometry x="405" y="722" width="30" height="30" as="geometry"/>
                </mxCell>
                <mxCell id="18" value="" style="ellipse;whiteSpace=wrap;html=1;aspect=fixed;fontStyle=1;fontSize=29;" parent="194" vertex="1">
                    <mxGeometry x="245" y="939" width="30" height="30" as="geometry"/>
                </mxCell>
                <mxCell id="19" value="" style="ellipse;whiteSpace=wrap;html=1;aspect=fixed;fontStyle=1;fontSize=29;" parent="194" vertex="1">
                    <mxGeometry x="406" y="939" width="30" height="30" as="geometry"/>
                </mxCell>
                <mxCell id="20" value="" style="endArrow=none;html=1;strokeWidth=3;fontSize=29;" parent="194" source="3" target="4" edge="1">
                    <mxGeometry width="50" height="50" relative="1" as="geometry">
                        <mxPoint x="290" y="330" as="sourcePoint"/>
                        <mxPoint x="340" y="280" as="targetPoint"/>
                    </mxGeometry>
                </mxCell>
                <mxCell id="22" value="" style="endArrow=none;html=1;strokeWidth=3;fontSize=29;" parent="194" source="6" target="4" edge="1">
                    <mxGeometry width="50" height="50" relative="1" as="geometry">
                        <mxPoint x="320" y="260" as="sourcePoint"/>
                        <mxPoint x="370" y="210" as="targetPoint"/>
                    </mxGeometry>
                </mxCell>
                <mxCell id="23" value="" style="endArrow=none;html=1;strokeWidth=3;fontSize=29;" parent="194" source="5" target="4" edge="1">
                    <mxGeometry width="50" height="50" relative="1" as="geometry">
                        <mxPoint x="204.67937441416439" y="245.91520392745826" as="sourcePoint"/>
                        <mxPoint x="335.3217532252113" y="218.09015721574497" as="targetPoint"/>
                    </mxGeometry>
                </mxCell>
                <mxCell id="24" value="" style="endArrow=none;html=1;strokeWidth=3;fontSize=29;" parent="194" source="5" target="7" edge="1">
                    <mxGeometry width="50" height="50" relative="1" as="geometry">
                        <mxPoint x="428" y="295" as="sourcePoint"/>
                        <mxPoint x="302.6782467747885" y="203.09015721574497" as="targetPoint"/>
                    </mxGeometry>
                </mxCell>
                <mxCell id="25" value="" style="endArrow=none;html=1;strokeWidth=3;fontSize=29;" parent="194" source="4" target="13" edge="1">
                    <mxGeometry width="50" height="50" relative="1" as="geometry">
                        <mxPoint x="517.3736070551886" y="262.57855416105383" as="sourcePoint"/>
                        <mxPoint x="584.5641477814929" y="404.4508374347213" as="targetPoint"/>
                    </mxGeometry>
                </mxCell>
                <mxCell id="26" value="" style="endArrow=none;html=1;strokeWidth=3;fontSize=29;" parent="194" source="6" target="8" edge="1">
                    <mxGeometry width="50" height="50" relative="1" as="geometry">
                        <mxPoint x="397.93534542941825" y="219.99986037493102" as="sourcePoint"/>
                        <mxPoint x="396.060975104248" y="450.0001243549449" as="targetPoint"/>
                    </mxGeometry>
                </mxCell>
                <mxCell id="27" value="" style="endArrow=none;html=1;strokeWidth=3;fontSize=29;" parent="194" source="13" target="14" edge="1">
                    <mxGeometry width="50" height="50" relative="1" as="geometry">
                        <mxPoint x="183.62639294474434" y="262.57855416119696" as="sourcePoint"/>
                        <mxPoint x="117.36650814340123" y="404.41811596074376" as="targetPoint"/>
                    </mxGeometry>
                </mxCell>
                <mxCell id="28" value="" style="endArrow=none;html=1;strokeWidth=3;fontSize=29;" parent="194" source="13" target="15" edge="1">
                    <mxGeometry width="50" height="50" relative="1" as="geometry">
                        <mxPoint x="336.4621444042" y="484.585295418049" as="sourcePoint"/>
                        <mxPoint x="279.54819023891537" y="532.4271580914252" as="targetPoint"/>
                    </mxGeometry>
                </mxCell>
                <mxCell id="29" value="" style="endArrow=none;html=1;strokeWidth=3;fontSize=29;" parent="194" source="7" target="9" edge="1">
                    <mxGeometry width="50" height="50" relative="1" as="geometry">
                        <mxPoint x="278.5378555958" y="469.5852954180492" as="sourcePoint"/>
                        <mxPoint x="336.45180976108486" y="517.4271580914257" as="targetPoint"/>
                    </mxGeometry>
                </mxCell>
                <mxCell id="30" value="" style="endArrow=none;html=1;strokeWidth=3;fontSize=29;" parent="194" source="9" target="11" edge="1">
                    <mxGeometry width="50" height="50" relative="1" as="geometry">
                        <mxPoint x="513.3423720225458" y="417.6228775986366" as="sourcePoint"/>
                        <mxPoint x="544.5644099940855" y="550.3987424748643" as="targetPoint"/>
                    </mxGeometry>
                </mxCell>
                <mxCell id="31" value="" style="endArrow=none;html=1;strokeWidth=3;fontSize=29;" parent="194" source="15" target="17" edge="1">
                    <mxGeometry width="50" height="50" relative="1" as="geometry">
                        <mxPoint x="627.7543178020219" y="594.9481863757323" as="sourcePoint"/>
                        <mxPoint x="626.1805372815504" y="606.0465277670285" as="targetPoint"/>
                    </mxGeometry>
                </mxCell>
                <mxCell id="33" value="" style="endArrow=none;html=1;strokeWidth=3;fontSize=29;" parent="194" source="14" target="16" edge="1">
                    <mxGeometry width="50" height="50" relative="1" as="geometry">
                        <mxPoint x="429" y="557" as="sourcePoint"/>
                        <mxPoint x="430" y="732" as="targetPoint"/>
                    </mxGeometry>
                </mxCell>
                <mxCell id="34" value="" style="endArrow=none;html=1;strokeWidth=3;fontSize=29;" parent="194" source="8" target="10" edge="1">
                    <mxGeometry width="50" height="50" relative="1" as="geometry">
                        <mxPoint x="376" y="547" as="sourcePoint"/>
                        <mxPoint x="377" y="722" as="targetPoint"/>
                    </mxGeometry>
                </mxCell>
                <mxCell id="36" value="" style="endArrow=none;html=1;strokeWidth=3;fontSize=29;" parent="194" source="10" target="12" edge="1">
                    <mxGeometry width="50" height="50" relative="1" as="geometry">
                        <mxPoint x="215.3619656244582" y="422.5521375021674" as="sourcePoint"/>
                        <mxPoint x="181.61564219280922" y="555.442282750005" as="targetPoint"/>
                    </mxGeometry>
                </mxCell>
                <mxCell id="37" value="" style="endArrow=none;html=1;strokeWidth=3;fontSize=29;" parent="194" source="18" target="16" edge="1">
                    <mxGeometry width="50" height="50" relative="1" as="geometry">
                        <mxPoint x="268" y="820" as="sourcePoint"/>
                        <mxPoint x="269" y="732" as="targetPoint"/>
                    </mxGeometry>
                </mxCell>
                <mxCell id="38" value="" style="endArrow=none;html=1;strokeWidth=3;fontSize=29;" parent="194" source="19" target="17" edge="1">
                    <mxGeometry width="50" height="50" relative="1" as="geometry">
                        <mxPoint x="270" y="949" as="sourcePoint"/>
                        <mxPoint x="269" y="762" as="targetPoint"/>
                    </mxGeometry>
                </mxCell>
                <mxCell id="39" value="Head" style="text;html=1;strokeColor=none;fillColor=none;align=center;verticalAlign=middle;whiteSpace=wrap;rounded=0;fontSize=29;" parent="194" vertex="1">
                    <mxGeometry x="406" width="84" height="30" as="geometry"/>
                </mxCell>
                <mxCell id="47" style="edgeStyle=orthogonalEdgeStyle;html=1;entryX=0;entryY=0.5;entryDx=0;entryDy=0;strokeWidth=3;fontSize=29;endArrow=none;endFill=0;strokeColor=#FF3333;" parent="194" source="2" target="39" edge="1">
                    <mxGeometry relative="1" as="geometry"/>
                </mxCell>
                <mxCell id="40" value="Neck" style="text;html=1;strokeColor=none;fillColor=none;align=center;verticalAlign=middle;whiteSpace=wrap;rounded=0;fontSize=29;fontColor=#000000;" parent="194" vertex="1">
                    <mxGeometry x="182" y="56" width="91" height="40" as="geometry"/>
                </mxCell>
                <mxCell id="41" value="Left and Right Collar" style="text;html=1;strokeColor=none;fillColor=none;align=center;verticalAlign=middle;whiteSpace=wrap;rounded=0;fontSize=29;" parent="194" vertex="1">
                    <mxGeometry x="424" y="140" width="186" height="30" as="geometry"/>
                </mxCell>
                <mxCell id="42" value="Right Shoulder" style="text;html=1;strokeColor=none;fillColor=none;align=center;verticalAlign=middle;whiteSpace=wrap;rounded=0;fontSize=29;" parent="194" vertex="1">
                    <mxGeometry x="540" y="230" width="140" height="30" as="geometry"/>
                </mxCell>
                <mxCell id="43" value="Left Shoulder" style="text;html=1;strokeColor=none;fillColor=none;align=center;verticalAlign=middle;whiteSpace=wrap;rounded=0;fontSize=29;" parent="194" vertex="1">
                    <mxGeometry x="80" y="140" width="133" height="30" as="geometry"/>
                </mxCell>
                <mxCell id="50" value="Left Elbow" style="text;html=1;strokeColor=none;fillColor=none;align=center;verticalAlign=middle;whiteSpace=wrap;rounded=0;fontSize=29;" parent="194" vertex="1">
                    <mxGeometry x="40" y="320" width="102.5" height="30" as="geometry"/>
                </mxCell>
                <mxCell id="52" value="Left Wrist" style="text;html=1;strokeColor=none;fillColor=none;align=center;verticalAlign=middle;whiteSpace=wrap;rounded=0;fontSize=29;" parent="194" vertex="1">
                    <mxGeometry x="10" y="487" width="92.5" height="30" as="geometry"/>
                </mxCell>
                <mxCell id="54" value="Left Hand" style="text;html=1;strokeColor=none;fillColor=none;align=center;verticalAlign=middle;whiteSpace=wrap;rounded=0;fontSize=29;" parent="194" vertex="1">
                    <mxGeometry y="556" width="92.5" height="30" as="geometry"/>
                </mxCell>
                <mxCell id="56" value="Right Elbow" style="text;html=1;strokeColor=none;fillColor=none;align=center;verticalAlign=middle;whiteSpace=wrap;rounded=0;fontSize=29;" parent="194" vertex="1">
                    <mxGeometry x="567" y="310" width="125.5" height="30" as="geometry"/>
                </mxCell>
                <mxCell id="58" value="Right Wrist" style="text;html=1;strokeColor=none;fillColor=none;align=center;verticalAlign=middle;whiteSpace=wrap;rounded=0;fontSize=29;" parent="194" vertex="1">
                    <mxGeometry x="577" y="487" width="125.5" height="30" as="geometry"/>
                </mxCell>
                <mxCell id="61" style="edgeStyle=orthogonalEdgeStyle;html=1;exitX=0;exitY=0.5;exitDx=0;exitDy=0;strokeWidth=3;fontSize=29;endArrow=none;endFill=0;strokeColor=#FF3333;" parent="194" source="60" target="11" edge="1">
                    <mxGeometry relative="1" as="geometry"/>
                </mxCell>
                <mxCell id="60" value="Right Hand" style="text;html=1;strokeColor=none;fillColor=none;align=center;verticalAlign=middle;whiteSpace=wrap;rounded=0;fontSize=29;" parent="194" vertex="1">
                    <mxGeometry x="600" y="551" width="125.5" height="30" as="geometry"/>
                </mxCell>
                <mxCell id="62" value="" style="ellipse;whiteSpace=wrap;html=1;aspect=fixed;fontStyle=1;fontSize=29;" parent="194" vertex="1">
                    <mxGeometry x="323" y="400" width="30" height="30" as="geometry"/>
                </mxCell>
                <mxCell id="46" style="edgeStyle=orthogonalEdgeStyle;html=1;entryX=1;entryY=0.5;entryDx=0;entryDy=0;strokeWidth=3;fontSize=29;endArrow=none;endFill=0;strokeColor=#FF3333;" parent="194" source="3" target="40" edge="1">
                    <mxGeometry relative="1" as="geometry">
                        <mxPoint x="340" y="149" as="sourcePoint"/>
                    </mxGeometry>
                </mxCell>
                <mxCell id="63" value="Torso" style="text;html=1;strokeColor=none;fillColor=none;align=center;verticalAlign=middle;whiteSpace=wrap;rounded=0;fontSize=29;" parent="194" vertex="1">
                    <mxGeometry x="390" y="353" width="70" height="30" as="geometry"/>
                </mxCell>
                <mxCell id="65" value="Waist" style="text;html=1;strokeColor=none;fillColor=none;align=center;verticalAlign=middle;whiteSpace=wrap;rounded=0;fontSize=29;" parent="194" vertex="1">
                    <mxGeometry x="385" y="430" width="70" height="30" as="geometry"/>
                </mxCell>
                <mxCell id="67" value="Right Hip" style="text;html=1;strokeColor=none;fillColor=none;align=center;verticalAlign=middle;whiteSpace=wrap;rounded=0;fontSize=29;" parent="194" vertex="1">
                    <mxGeometry x="497" y="640" width="103" height="30" as="geometry"/>
                </mxCell>
                <mxCell id="70" style="edgeStyle=orthogonalEdgeStyle;html=1;exitX=1;exitY=0.5;exitDx=0;exitDy=0;entryX=0;entryY=0.5;entryDx=0;entryDy=0;strokeWidth=3;fontSize=29;endArrow=none;endFill=0;strokeColor=#FF3333;" parent="194" source="69" target="14" edge="1">
                    <mxGeometry relative="1" as="geometry"/>
                </mxCell>
                <mxCell id="69" value="Left Hip" style="text;html=1;strokeColor=none;fillColor=none;align=center;verticalAlign=middle;whiteSpace=wrap;rounded=0;fontSize=29;" parent="194" vertex="1">
                    <mxGeometry x="110" y="640" width="80" height="30" as="geometry"/>
                </mxCell>
                <mxCell id="71" value="Right Knee" style="text;html=1;strokeColor=none;fillColor=none;align=center;verticalAlign=middle;whiteSpace=wrap;rounded=0;fontSize=29;" parent="194" vertex="1">
                    <mxGeometry x="497" y="770" width="103" height="30" as="geometry"/>
                </mxCell>
                <mxCell id="74" value="Left Knee" style="text;html=1;strokeColor=none;fillColor=none;align=center;verticalAlign=middle;whiteSpace=wrap;rounded=0;fontSize=29;" parent="194" vertex="1">
                    <mxGeometry x="102.5" y="770" width="103" height="30" as="geometry"/>
                </mxCell>
                <mxCell id="76" value="Right Ankle" style="text;html=1;strokeColor=none;fillColor=none;align=center;verticalAlign=middle;whiteSpace=wrap;rounded=0;fontSize=29;" parent="194" vertex="1">
                    <mxGeometry x="496" y="870" width="124" height="30" as="geometry"/>
                </mxCell>
                <mxCell id="80" style="edgeStyle=orthogonalEdgeStyle;html=1;exitX=1;exitY=0.5;exitDx=0;exitDy=0;entryX=0;entryY=0.5;entryDx=0;entryDy=0;strokeWidth=3;fontSize=29;endArrow=none;endFill=0;strokeColor=#FF3333;" parent="194" source="79" target="18" edge="1">
                    <mxGeometry relative="1" as="geometry"/>
                </mxCell>
                <mxCell id="79" value="Left Ankle" style="text;html=1;strokeColor=none;fillColor=none;align=center;verticalAlign=middle;whiteSpace=wrap;rounded=0;fontSize=29;" parent="194" vertex="1">
                    <mxGeometry x="95.75" y="870" width="108.5" height="30" as="geometry"/>
                </mxCell>
                <mxCell id="45" style="edgeStyle=orthogonalEdgeStyle;html=1;exitX=1;exitY=0.5;exitDx=0;exitDy=0;entryX=0;entryY=0.5;entryDx=0;entryDy=0;strokeWidth=3;fontSize=29;endArrow=none;endFill=0;strokeColor=#FF3333;" parent="194" source="4" target="41" edge="1">
                    <mxGeometry relative="1" as="geometry"/>
                </mxCell>
                <mxCell id="49" style="edgeStyle=orthogonalEdgeStyle;html=1;exitX=1;exitY=0.5;exitDx=0;exitDy=0;entryX=0;entryY=0.5;entryDx=0;entryDy=0;strokeWidth=3;fontSize=29;endArrow=none;endFill=0;strokeColor=#FF3333;" parent="194" source="5" target="42" edge="1">
                    <mxGeometry relative="1" as="geometry"/>
                </mxCell>
                <mxCell id="48" style="edgeStyle=orthogonalEdgeStyle;html=1;exitX=0.5;exitY=0;exitDx=0;exitDy=0;entryX=1;entryY=0.5;entryDx=0;entryDy=0;strokeWidth=3;fontSize=29;endArrow=none;endFill=0;strokeColor=#FF3333;" parent="194" source="6" target="43" edge="1">
                    <mxGeometry relative="1" as="geometry"/>
                </mxCell>
                <mxCell id="51" style="edgeStyle=orthogonalEdgeStyle;html=1;exitX=0;exitY=0.5;exitDx=0;exitDy=0;entryX=1;entryY=0.5;entryDx=0;entryDy=0;strokeWidth=3;fontSize=29;endArrow=none;endFill=0;strokeColor=#FF3333;" parent="194" source="8" target="50" edge="1">
                    <mxGeometry relative="1" as="geometry"/>
                </mxCell>
                <mxCell id="53" style="edgeStyle=orthogonalEdgeStyle;html=1;entryX=1;entryY=0.5;entryDx=0;entryDy=0;strokeWidth=3;fontSize=29;endArrow=none;endFill=0;strokeColor=#FF3333;" parent="194" source="10" target="52" edge="1">
                    <mxGeometry relative="1" as="geometry"/>
                </mxCell>
                <mxCell id="55" style="edgeStyle=orthogonalEdgeStyle;html=1;exitX=0;exitY=0.5;exitDx=0;exitDy=0;entryX=1;entryY=0.5;entryDx=0;entryDy=0;strokeWidth=3;fontSize=29;endArrow=none;endFill=0;strokeColor=#FF3333;" parent="194" source="12" target="54" edge="1">
                    <mxGeometry relative="1" as="geometry"/>
                </mxCell>
                <mxCell id="57" style="edgeStyle=orthogonalEdgeStyle;html=1;exitX=1;exitY=0.5;exitDx=0;exitDy=0;entryX=0;entryY=0.5;entryDx=0;entryDy=0;strokeWidth=3;fontSize=29;endArrow=none;endFill=0;strokeColor=#FF3333;" parent="194" source="7" target="56" edge="1">
                    <mxGeometry relative="1" as="geometry"/>
                </mxCell>
                <mxCell id="59" style="edgeStyle=orthogonalEdgeStyle;html=1;entryX=0;entryY=0.5;entryDx=0;entryDy=0;strokeWidth=3;fontSize=29;endArrow=none;endFill=0;strokeColor=#FF3333;" parent="194" source="9" target="58" edge="1">
                    <mxGeometry relative="1" as="geometry"/>
                </mxCell>
                <mxCell id="64" style="edgeStyle=orthogonalEdgeStyle;html=1;exitX=1;exitY=0.5;exitDx=0;exitDy=0;entryX=0;entryY=0.5;entryDx=0;entryDy=0;strokeWidth=3;fontSize=29;endArrow=none;endFill=0;strokeColor=#FF3333;" parent="194" source="62" target="63" edge="1">
                    <mxGeometry relative="1" as="geometry"/>
                </mxCell>
                <mxCell id="66" style="edgeStyle=orthogonalEdgeStyle;html=1;entryX=0;entryY=0.5;entryDx=0;entryDy=0;strokeWidth=3;fontSize=29;endArrow=none;endFill=0;strokeColor=#FF3333;" parent="194" source="13" target="65" edge="1">
                    <mxGeometry relative="1" as="geometry"/>
                </mxCell>
                <mxCell id="68" style="edgeStyle=orthogonalEdgeStyle;html=1;exitX=1;exitY=0.5;exitDx=0;exitDy=0;entryX=0;entryY=0.5;entryDx=0;entryDy=0;strokeWidth=3;fontSize=29;endArrow=none;endFill=0;strokeColor=#FF3333;" parent="194" source="15" target="67" edge="1">
                    <mxGeometry relative="1" as="geometry"/>
                </mxCell>
                <mxCell id="73" style="edgeStyle=orthogonalEdgeStyle;html=1;exitX=1;exitY=0.5;exitDx=0;exitDy=0;entryX=0;entryY=0.5;entryDx=0;entryDy=0;strokeWidth=3;fontSize=29;endArrow=none;endFill=0;strokeColor=#FF3333;" parent="194" source="17" target="71" edge="1">
                    <mxGeometry relative="1" as="geometry"/>
                </mxCell>
                <mxCell id="75" style="edgeStyle=orthogonalEdgeStyle;html=1;exitX=0;exitY=0.5;exitDx=0;exitDy=0;entryX=1;entryY=0.5;entryDx=0;entryDy=0;strokeWidth=3;fontSize=29;endArrow=none;endFill=0;strokeColor=#FF3333;" parent="194" source="16" target="74" edge="1">
                    <mxGeometry relative="1" as="geometry"/>
                </mxCell>
                <mxCell id="78" style="edgeStyle=orthogonalEdgeStyle;html=1;exitX=1;exitY=0.5;exitDx=0;exitDy=0;entryX=0;entryY=0.5;entryDx=0;entryDy=0;strokeWidth=3;fontSize=29;endArrow=none;endFill=0;strokeColor=#FF3333;" parent="194" source="19" target="76" edge="1">
                    <mxGeometry relative="1" as="geometry"/>
                </mxCell>
                <mxCell id="378" value="" style="group" parent="1" vertex="1" connectable="0">
                    <mxGeometry x="820" y="91.5" width="775.5" height="969" as="geometry"/>
                </mxCell>
                <mxCell id="318" value="" style="ellipse;whiteSpace=wrap;html=1;aspect=fixed;fontSize=29;" parent="378" vertex="1">
                    <mxGeometry x="363" y="56" width="30" height="30" as="geometry"/>
                </mxCell>
                <mxCell id="320" value="" style="ellipse;whiteSpace=wrap;html=1;aspect=fixed;direction=south;fontSize=29;" parent="378" vertex="1">
                    <mxGeometry x="363" y="139" width="30" height="30" as="geometry"/>
                </mxCell>
                <mxCell id="316" value="" style="endArrow=none;html=1;strokeWidth=3;entryX=0.5;entryY=0.467;entryDx=0;entryDy=0;entryPerimeter=0;fontSize=29;" parent="378" source="320" target="318" edge="1">
                    <mxGeometry width="50" height="50" relative="1" as="geometry">
                        <mxPoint x="358" y="170" as="sourcePoint"/>
                        <mxPoint x="408" y="120" as="targetPoint"/>
                    </mxGeometry>
                </mxCell>
                <mxCell id="322" value="" style="ellipse;whiteSpace=wrap;html=1;aspect=fixed;fontSize=29;" parent="378" vertex="1">
                    <mxGeometry x="363" y="190" width="30" height="30" as="geometry"/>
                </mxCell>
                <mxCell id="324" value="" style="ellipse;whiteSpace=wrap;html=1;aspect=fixed;fontSize=29;" parent="378" vertex="1">
                    <mxGeometry x="464" y="209" width="30" height="30" as="geometry"/>
                </mxCell>
                <mxCell id="326" value="" style="ellipse;whiteSpace=wrap;html=1;aspect=fixed;fontStyle=1;fontSize=29;" parent="378" vertex="1">
                    <mxGeometry x="253" y="214" width="30" height="30" as="geometry"/>
                </mxCell>
                <mxCell id="328" value="" style="ellipse;whiteSpace=wrap;html=1;aspect=fixed;fontSize=29;" parent="378" vertex="1">
                    <mxGeometry x="525" y="378" width="30" height="30" as="geometry"/>
                </mxCell>
                <mxCell id="330" value="" style="ellipse;whiteSpace=wrap;html=1;aspect=fixed;fontStyle=1;fontSize=29;" parent="378" vertex="1">
                    <mxGeometry x="210" y="383" width="30" height="30" as="geometry"/>
                </mxCell>
                <mxCell id="332" value="" style="ellipse;whiteSpace=wrap;html=1;aspect=fixed;fontSize=29;" parent="378" vertex="1">
                    <mxGeometry x="563" y="540" width="30" height="30" as="geometry"/>
                </mxCell>
                <mxCell id="334" value="" style="ellipse;whiteSpace=wrap;html=1;aspect=fixed;fontStyle=1;fontSize=29;" parent="378" vertex="1">
                    <mxGeometry x="171" y="545" width="30" height="30" as="geometry"/>
                </mxCell>
                <mxCell id="335" value="" style="ellipse;whiteSpace=wrap;html=1;aspect=fixed;fontSize=29;" parent="378" vertex="1">
                    <mxGeometry x="564" y="581" width="30" height="30" as="geometry"/>
                </mxCell>
                <mxCell id="337" value="" style="ellipse;whiteSpace=wrap;html=1;aspect=fixed;fontStyle=1;fontSize=29;" parent="378" vertex="1">
                    <mxGeometry x="170" y="586" width="30" height="30" as="geometry"/>
                </mxCell>
                <mxCell id="339" value="" style="ellipse;whiteSpace=wrap;html=1;aspect=fixed;fontStyle=1;fontSize=29;" parent="378" vertex="1">
                    <mxGeometry x="363" y="485" width="30" height="30" as="geometry"/>
                </mxCell>
                <mxCell id="340" value="" style="ellipse;whiteSpace=wrap;html=1;aspect=fixed;fontStyle=1;fontSize=29;" parent="378" vertex="1">
                    <mxGeometry x="283" y="517" width="30" height="30" as="geometry"/>
                </mxCell>
                <mxCell id="342" value="" style="ellipse;whiteSpace=wrap;html=1;aspect=fixed;fontStyle=1;fontSize=29;" parent="378" vertex="1">
                    <mxGeometry x="444" y="517" width="30" height="30" as="geometry"/>
                </mxCell>
                <mxCell id="344" value="" style="ellipse;whiteSpace=wrap;html=1;aspect=fixed;fontStyle=1;fontSize=29;" parent="378" vertex="1">
                    <mxGeometry x="284" y="722" width="30" height="30" as="geometry"/>
                </mxCell>
                <mxCell id="346" value="" style="ellipse;whiteSpace=wrap;html=1;aspect=fixed;fontStyle=1;fontSize=29;" parent="378" vertex="1">
                    <mxGeometry x="445" y="722" width="30" height="30" as="geometry"/>
                </mxCell>
                <mxCell id="348" value="" style="ellipse;whiteSpace=wrap;html=1;aspect=fixed;fontStyle=1;fontSize=29;" parent="378" vertex="1">
                    <mxGeometry x="285" y="939" width="30" height="30" as="geometry"/>
                </mxCell>
                <mxCell id="350" value="" style="ellipse;whiteSpace=wrap;html=1;aspect=fixed;fontStyle=1;fontSize=29;" parent="378" vertex="1">
                    <mxGeometry x="446" y="939" width="30" height="30" as="geometry"/>
                </mxCell>
                <mxCell id="351" value="" style="endArrow=none;html=1;strokeWidth=3;fontSize=29;" parent="378" source="320" target="322" edge="1">
                    <mxGeometry width="50" height="50" relative="1" as="geometry">
                        <mxPoint x="330" y="330" as="sourcePoint"/>
                        <mxPoint x="380" y="280" as="targetPoint"/>
                    </mxGeometry>
                </mxCell>
                <mxCell id="352" value="" style="endArrow=none;html=1;strokeWidth=3;fontSize=29;" parent="378" source="326" target="322" edge="1">
                    <mxGeometry width="50" height="50" relative="1" as="geometry">
                        <mxPoint x="360" y="260" as="sourcePoint"/>
                        <mxPoint x="410" y="210" as="targetPoint"/>
                    </mxGeometry>
                </mxCell>
                <mxCell id="353" value="" style="endArrow=none;html=1;strokeWidth=3;fontSize=29;" parent="378" source="324" target="322" edge="1">
                    <mxGeometry width="50" height="50" relative="1" as="geometry">
                        <mxPoint x="244.67937441416439" y="245.91520392745826" as="sourcePoint"/>
                        <mxPoint x="375.3217532252113" y="218.09015721574497" as="targetPoint"/>
                    </mxGeometry>
                </mxCell>
                <mxCell id="354" value="" style="endArrow=none;html=1;strokeWidth=3;fontSize=29;" parent="378" source="324" target="328" edge="1">
                    <mxGeometry width="50" height="50" relative="1" as="geometry">
                        <mxPoint x="468" y="295" as="sourcePoint"/>
                        <mxPoint x="342.6782467747885" y="203.09015721574497" as="targetPoint"/>
                    </mxGeometry>
                </mxCell>
                <mxCell id="355" value="" style="endArrow=none;html=1;strokeWidth=3;fontSize=29;" parent="378" source="322" target="339" edge="1">
                    <mxGeometry width="50" height="50" relative="1" as="geometry">
                        <mxPoint x="557.3736070551886" y="262.57855416105383" as="sourcePoint"/>
                        <mxPoint x="624.5641477814929" y="404.4508374347213" as="targetPoint"/>
                    </mxGeometry>
                </mxCell>
                <mxCell id="356" value="" style="endArrow=none;html=1;strokeWidth=3;fontSize=29;" parent="378" source="326" target="330" edge="1">
                    <mxGeometry width="50" height="50" relative="1" as="geometry">
                        <mxPoint x="437.93534542941825" y="219.99986037493102" as="sourcePoint"/>
                        <mxPoint x="436.060975104248" y="450.0001243549449" as="targetPoint"/>
                    </mxGeometry>
                </mxCell>
                <mxCell id="357" value="" style="endArrow=none;html=1;strokeWidth=3;fontSize=29;" parent="378" source="339" target="340" edge="1">
                    <mxGeometry width="50" height="50" relative="1" as="geometry">
                        <mxPoint x="223.62639294474434" y="262.57855416119696" as="sourcePoint"/>
                        <mxPoint x="157.36650814340123" y="404.41811596074376" as="targetPoint"/>
                    </mxGeometry>
                </mxCell>
                <mxCell id="358" value="" style="endArrow=none;html=1;strokeWidth=3;fontSize=29;" parent="378" source="339" target="342" edge="1">
                    <mxGeometry width="50" height="50" relative="1" as="geometry">
                        <mxPoint x="376.4621444042" y="484.585295418049" as="sourcePoint"/>
                        <mxPoint x="319.54819023891537" y="532.4271580914252" as="targetPoint"/>
                    </mxGeometry>
                </mxCell>
                <mxCell id="359" value="" style="endArrow=none;html=1;strokeWidth=3;fontSize=29;" parent="378" source="328" target="332" edge="1">
                    <mxGeometry width="50" height="50" relative="1" as="geometry">
                        <mxPoint x="318.5378555958" y="469.5852954180492" as="sourcePoint"/>
                        <mxPoint x="376.45180976108486" y="517.4271580914257" as="targetPoint"/>
                    </mxGeometry>
                </mxCell>
                <mxCell id="360" value="" style="endArrow=none;html=1;strokeWidth=3;fontSize=29;" parent="378" source="332" target="335" edge="1">
                    <mxGeometry width="50" height="50" relative="1" as="geometry">
                        <mxPoint x="553.3423720225458" y="417.6228775986366" as="sourcePoint"/>
                        <mxPoint x="584.5644099940855" y="550.3987424748643" as="targetPoint"/>
                    </mxGeometry>
                </mxCell>
                <mxCell id="361" value="" style="endArrow=none;html=1;strokeWidth=3;fontSize=29;" parent="378" source="342" target="346" edge="1">
                    <mxGeometry width="50" height="50" relative="1" as="geometry">
                        <mxPoint x="667.7543178020219" y="594.9481863757323" as="sourcePoint"/>
                        <mxPoint x="666.1805372815504" y="606.0465277670285" as="targetPoint"/>
                    </mxGeometry>
                </mxCell>
                <mxCell id="362" value="" style="endArrow=none;html=1;strokeWidth=3;fontSize=29;" parent="378" source="340" target="344" edge="1">
                    <mxGeometry width="50" height="50" relative="1" as="geometry">
                        <mxPoint x="469" y="557" as="sourcePoint"/>
                        <mxPoint x="470" y="732" as="targetPoint"/>
                    </mxGeometry>
                </mxCell>
                <mxCell id="363" value="" style="endArrow=none;html=1;strokeWidth=3;fontSize=29;" parent="378" source="330" target="334" edge="1">
                    <mxGeometry width="50" height="50" relative="1" as="geometry">
                        <mxPoint x="416" y="547" as="sourcePoint"/>
                        <mxPoint x="417" y="722" as="targetPoint"/>
                    </mxGeometry>
                </mxCell>
                <mxCell id="364" value="" style="endArrow=none;html=1;strokeWidth=3;fontSize=29;" parent="378" source="334" target="337" edge="1">
                    <mxGeometry width="50" height="50" relative="1" as="geometry">
                        <mxPoint x="233.3619656244582" y="422.5521375021674" as="sourcePoint"/>
                        <mxPoint x="199.61564219280922" y="555.442282750005" as="targetPoint"/>
                    </mxGeometry>
                </mxCell>
                <mxCell id="365" value="" style="endArrow=none;html=1;strokeWidth=3;fontSize=29;" parent="378" source="348" target="344" edge="1">
                    <mxGeometry width="50" height="50" relative="1" as="geometry">
                        <mxPoint x="308" y="820" as="sourcePoint"/>
                        <mxPoint x="309" y="732" as="targetPoint"/>
                    </mxGeometry>
                </mxCell>
                <mxCell id="366" value="" style="endArrow=none;html=1;strokeWidth=3;fontSize=29;" parent="378" source="350" target="346" edge="1">
                    <mxGeometry width="50" height="50" relative="1" as="geometry">
                        <mxPoint x="310" y="949" as="sourcePoint"/>
                        <mxPoint x="309" y="762" as="targetPoint"/>
                    </mxGeometry>
                </mxCell>
                <mxCell id="367" value="Head" style="text;html=1;strokeColor=none;fillColor=none;align=center;verticalAlign=middle;whiteSpace=wrap;rounded=0;fontSize=29;" parent="378" vertex="1">
                    <mxGeometry x="446" width="84" height="30" as="geometry"/>
                </mxCell>
                <mxCell id="317" style="edgeStyle=orthogonalEdgeStyle;html=1;exitX=1;exitY=0.5;exitDx=0;exitDy=0;entryX=0;entryY=0.5;entryDx=0;entryDy=0;strokeWidth=3;fontSize=29;endArrow=none;endFill=0;strokeColor=#FF3333;" parent="378" source="318" target="367" edge="1">
                    <mxGeometry relative="1" as="geometry"/>
                </mxCell>
                <mxCell id="368" value="Left Arm" style="text;html=1;strokeColor=none;fillColor=none;align=center;verticalAlign=middle;whiteSpace=wrap;rounded=0;fontSize=29;" parent="378" vertex="1">
                    <mxGeometry y="310" width="102.5" height="30" as="geometry"/>
                </mxCell>
                <mxCell id="369" value="Right Arm" style="text;html=1;strokeColor=none;fillColor=none;align=center;verticalAlign=middle;whiteSpace=wrap;rounded=0;fontSize=29;" parent="378" vertex="1">
                    <mxGeometry x="650" y="310" width="125.5" height="30" as="geometry"/>
                </mxCell>
                <mxCell id="370" style="edgeStyle=orthogonalEdgeStyle;html=1;exitX=0;exitY=0.5;exitDx=0;exitDy=0;entryX=1;entryY=0.5;entryDx=0;entryDy=0;strokeWidth=3;fontSize=29;endArrow=none;endFill=0;strokeColor=#FF3333;" parent="378" source="369" target="335" edge="1">
                    <mxGeometry relative="1" as="geometry"/>
                </mxCell>
                <mxCell id="372" value="" style="ellipse;whiteSpace=wrap;html=1;aspect=fixed;fontStyle=1;fontSize=29;" parent="378" vertex="1">
                    <mxGeometry x="363" y="400" width="30" height="30" as="geometry"/>
                </mxCell>
                <mxCell id="319" style="edgeStyle=orthogonalEdgeStyle;html=1;exitX=0.5;exitY=0;exitDx=0;exitDy=0;entryX=0;entryY=0.5;entryDx=0;entryDy=0;strokeWidth=3;fontSize=29;endArrow=none;endFill=0;strokeColor=#FF3333;" parent="378" source="320" target="367" edge="1">
                    <mxGeometry relative="1" as="geometry"/>
                </mxCell>
                <mxCell id="373" value="Torso" style="text;html=1;strokeColor=none;fillColor=none;align=center;verticalAlign=middle;whiteSpace=wrap;rounded=0;fontSize=29;" parent="378" vertex="1">
                    <mxGeometry x="476" y="139" width="70" height="30" as="geometry"/>
                </mxCell>
                <mxCell id="374" style="edgeStyle=orthogonalEdgeStyle;html=1;exitX=1;exitY=0.5;exitDx=0;exitDy=0;entryX=0;entryY=0.5;entryDx=0;entryDy=0;strokeWidth=3;fontSize=29;endArrow=none;endFill=0;strokeColor=#FF3333;" parent="378" source="375" target="340" edge="1">
                    <mxGeometry relative="1" as="geometry"/>
                </mxCell>
                <mxCell id="375" value="Left Leg" style="text;html=1;strokeColor=none;fillColor=none;align=center;verticalAlign=middle;whiteSpace=wrap;rounded=0;fontSize=29;" parent="378" vertex="1">
                    <mxGeometry x="117" y="722" width="80" height="30" as="geometry"/>
                </mxCell>
                <mxCell id="376" value="Right Leg" style="text;html=1;strokeColor=none;fillColor=none;align=center;verticalAlign=middle;whiteSpace=wrap;rounded=0;fontSize=29;" parent="378" vertex="1">
                    <mxGeometry x="555" y="722" width="103" height="30" as="geometry"/>
                </mxCell>
                <mxCell id="325" style="edgeStyle=orthogonalEdgeStyle;html=1;exitX=0.5;exitY=0;exitDx=0;exitDy=0;entryX=1;entryY=0.5;entryDx=0;entryDy=0;strokeWidth=3;fontSize=29;endArrow=none;endFill=0;strokeColor=#FF3333;" parent="378" source="326" target="368" edge="1">
                    <mxGeometry relative="1" as="geometry"/>
                </mxCell>
                <mxCell id="329" style="edgeStyle=orthogonalEdgeStyle;html=1;entryX=1;entryY=0.5;entryDx=0;entryDy=0;strokeWidth=3;fontSize=29;endArrow=none;endFill=0;strokeColor=#FF3333;" parent="378" source="330" target="368" edge="1">
                    <mxGeometry relative="1" as="geometry"/>
                </mxCell>
                <mxCell id="333" style="edgeStyle=orthogonalEdgeStyle;html=1;entryX=1;entryY=0.5;entryDx=0;entryDy=0;strokeWidth=3;fontSize=29;endArrow=none;endFill=0;strokeColor=#FF3333;" parent="378" source="334" target="368" edge="1">
                    <mxGeometry relative="1" as="geometry"/>
                </mxCell>
                <mxCell id="336" style="edgeStyle=orthogonalEdgeStyle;html=1;exitX=0;exitY=0.5;exitDx=0;exitDy=0;entryX=1;entryY=0.5;entryDx=0;entryDy=0;strokeWidth=3;fontSize=29;endArrow=none;endFill=0;strokeColor=#FF3333;" parent="378" source="337" target="368" edge="1">
                    <mxGeometry relative="1" as="geometry">
                        <mxPoint x="132.5" y="571" as="targetPoint"/>
                    </mxGeometry>
                </mxCell>
                <mxCell id="323" style="edgeStyle=orthogonalEdgeStyle;html=1;exitX=1;exitY=0.5;exitDx=0;exitDy=0;entryX=0;entryY=0.5;entryDx=0;entryDy=0;strokeWidth=3;fontSize=29;endArrow=none;endFill=0;strokeColor=#FF3333;" parent="378" source="324" target="369" edge="1">
                    <mxGeometry relative="1" as="geometry"/>
                </mxCell>
                <mxCell id="327" style="edgeStyle=orthogonalEdgeStyle;html=1;exitX=1;exitY=0.5;exitDx=0;exitDy=0;entryX=0;entryY=0.5;entryDx=0;entryDy=0;strokeWidth=3;fontSize=29;endArrow=none;endFill=0;strokeColor=#FF3333;" parent="378" source="328" target="369" edge="1">
                    <mxGeometry relative="1" as="geometry"/>
                </mxCell>
                <mxCell id="331" style="edgeStyle=orthogonalEdgeStyle;html=1;entryX=0;entryY=0.5;entryDx=0;entryDy=0;strokeWidth=3;fontSize=29;endArrow=none;endFill=0;strokeColor=#FF3333;" parent="378" source="332" target="369" edge="1">
                    <mxGeometry relative="1" as="geometry"/>
                </mxCell>
                <mxCell id="321" style="edgeStyle=orthogonalEdgeStyle;html=1;entryX=0;entryY=0.5;entryDx=0;entryDy=0;strokeWidth=3;fontSize=29;endArrow=none;endFill=0;strokeColor=#FF3333;" parent="378" source="322" target="373" edge="1">
                    <mxGeometry relative="1" as="geometry"/>
                </mxCell>
                <mxCell id="338" style="edgeStyle=orthogonalEdgeStyle;html=1;entryX=0;entryY=0.5;entryDx=0;entryDy=0;strokeWidth=3;fontSize=29;endArrow=none;endFill=0;strokeColor=#FF3333;" parent="378" source="339" target="373" edge="1">
                    <mxGeometry relative="1" as="geometry"/>
                </mxCell>
                <mxCell id="371" style="edgeStyle=orthogonalEdgeStyle;html=1;exitX=1;exitY=0.5;exitDx=0;exitDy=0;entryX=0;entryY=0.5;entryDx=0;entryDy=0;strokeWidth=3;fontSize=29;endArrow=none;endFill=0;strokeColor=#FF3333;" parent="378" source="372" target="373" edge="1">
                    <mxGeometry relative="1" as="geometry"/>
                </mxCell>
                <mxCell id="343" style="edgeStyle=orthogonalEdgeStyle;html=1;exitX=0;exitY=0.5;exitDx=0;exitDy=0;entryX=1;entryY=0.5;entryDx=0;entryDy=0;strokeWidth=3;fontSize=29;endArrow=none;endFill=0;strokeColor=#FF3333;" parent="378" source="344" target="375" edge="1">
                    <mxGeometry relative="1" as="geometry"/>
                </mxCell>
                <mxCell id="347" style="edgeStyle=orthogonalEdgeStyle;html=1;exitX=0;exitY=0.5;exitDx=0;exitDy=0;entryX=1;entryY=0.5;entryDx=0;entryDy=0;strokeWidth=3;fontSize=29;endArrow=none;endFill=0;strokeColor=#FF3333;" parent="378" source="348" target="375" edge="1">
                    <mxGeometry relative="1" as="geometry"/>
                </mxCell>
                <mxCell id="341" style="edgeStyle=orthogonalEdgeStyle;html=1;exitX=1;exitY=0.5;exitDx=0;exitDy=0;entryX=0;entryY=0.5;entryDx=0;entryDy=0;strokeWidth=3;fontSize=29;endArrow=none;endFill=0;strokeColor=#FF3333;" parent="378" source="342" target="376" edge="1">
                    <mxGeometry relative="1" as="geometry"/>
                </mxCell>
                <mxCell id="345" style="edgeStyle=orthogonalEdgeStyle;html=1;exitX=1;exitY=0.5;exitDx=0;exitDy=0;entryX=0;entryY=0.5;entryDx=0;entryDy=0;strokeWidth=3;fontSize=29;endArrow=none;endFill=0;strokeColor=#FF3333;" parent="378" source="346" target="376" edge="1">
                    <mxGeometry relative="1" as="geometry"/>
                </mxCell>
                <mxCell id="349" style="edgeStyle=orthogonalEdgeStyle;html=1;exitX=1;exitY=0.5;exitDx=0;exitDy=0;entryX=0;entryY=0.5;entryDx=0;entryDy=0;strokeWidth=3;fontSize=29;endArrow=none;endFill=0;strokeColor=#FF3333;" parent="378" source="350" target="376" edge="1">
                    <mxGeometry relative="1" as="geometry"/>
                </mxCell>
                <mxCell id="380" value="&lt;font style=&quot;font-size: 60px;&quot;&gt;(a) Joint Problem Set&lt;/font&gt;" style="text;html=1;strokeColor=none;fillColor=none;align=center;verticalAlign=middle;whiteSpace=wrap;rounded=0;fontSize=29;fontColor=#000000;" parent="1" vertex="1">
                    <mxGeometry x="134.75" y="1270" width="570" height="71" as="geometry"/>
                </mxCell>
                <mxCell id="381" value="&lt;font style=&quot;font-size: 60px;&quot;&gt;(b) Body Part Problem Set&lt;/font&gt;" style="text;html=1;strokeColor=none;fillColor=none;align=center;verticalAlign=middle;whiteSpace=wrap;rounded=0;fontSize=29;fontColor=#000000;" parent="1" vertex="1">
                    <mxGeometry x="880" y="1304" width="660" height="71" as="geometry"/>
                </mxCell>
                <mxCell id="383" value="&lt;font style=&quot;font-size: 60px;&quot;&gt;(c) Half Body Problem Set&lt;/font&gt;" style="text;html=1;strokeColor=none;fillColor=none;align=center;verticalAlign=middle;whiteSpace=wrap;rounded=0;fontSize=29;fontColor=#000000;" parent="1" vertex="1">
                    <mxGeometry x="1575" y="1304" width="660" height="71" as="geometry"/>
                </mxCell>
                <mxCell id="384" value="&lt;font style=&quot;font-size: 60px;&quot;&gt;(d) Full Body Problem Set&lt;/font&gt;" style="text;html=1;strokeColor=none;fillColor=none;align=center;verticalAlign=middle;whiteSpace=wrap;rounded=0;fontSize=29;fontColor=#000000;" parent="1" vertex="1">
                    <mxGeometry x="2250" y="1304" width="660" height="71" as="geometry"/>
                </mxCell>
                <mxCell id="198" value="" style="ellipse;whiteSpace=wrap;html=1;aspect=fixed;" parent="1" vertex="1">
                    <mxGeometry x="1883" y="145" width="30" height="30" as="geometry"/>
                </mxCell>
                <mxCell id="200" value="" style="ellipse;whiteSpace=wrap;html=1;aspect=fixed;direction=south;" parent="1" vertex="1">
                    <mxGeometry x="1883" y="228" width="30" height="30" as="geometry"/>
                </mxCell>
                <mxCell id="196" value="" style="endArrow=none;html=1;strokeWidth=3;entryX=0.5;entryY=0.467;entryDx=0;entryDy=0;entryPerimeter=0;" parent="1" source="200" target="198" edge="1">
                    <mxGeometry width="50" height="50" relative="1" as="geometry">
                        <mxPoint x="1878" y="259" as="sourcePoint"/>
                        <mxPoint x="1928" y="209" as="targetPoint"/>
                    </mxGeometry>
                </mxCell>
                <mxCell id="202" value="" style="ellipse;whiteSpace=wrap;html=1;aspect=fixed;" parent="1" vertex="1">
                    <mxGeometry x="1883" y="279" width="30" height="30" as="geometry"/>
                </mxCell>
                <mxCell id="204" value="" style="ellipse;whiteSpace=wrap;html=1;aspect=fixed;" parent="1" vertex="1">
                    <mxGeometry x="1984" y="298" width="30" height="30" as="geometry"/>
                </mxCell>
                <mxCell id="206" value="" style="ellipse;whiteSpace=wrap;html=1;aspect=fixed;fontStyle=1" parent="1" vertex="1">
                    <mxGeometry x="1773" y="303" width="30" height="30" as="geometry"/>
                </mxCell>
                <mxCell id="208" value="" style="ellipse;whiteSpace=wrap;html=1;aspect=fixed;" parent="1" vertex="1">
                    <mxGeometry x="2045" y="467" width="30" height="30" as="geometry"/>
                </mxCell>
                <mxCell id="210" value="" style="ellipse;whiteSpace=wrap;html=1;aspect=fixed;fontStyle=1" parent="1" vertex="1">
                    <mxGeometry x="1730" y="467" width="30" height="30" as="geometry"/>
                </mxCell>
                <mxCell id="212" value="" style="ellipse;whiteSpace=wrap;html=1;aspect=fixed;" parent="1" vertex="1">
                    <mxGeometry x="2083" y="629" width="30" height="30" as="geometry"/>
                </mxCell>
                <mxCell id="214" value="" style="ellipse;whiteSpace=wrap;html=1;aspect=fixed;fontStyle=1" parent="1" vertex="1">
                    <mxGeometry x="1691" y="634" width="30" height="30" as="geometry"/>
                </mxCell>
                <mxCell id="215" value="" style="ellipse;whiteSpace=wrap;html=1;aspect=fixed;" parent="1" vertex="1">
                    <mxGeometry x="2084" y="670" width="30" height="30" as="geometry"/>
                </mxCell>
                <mxCell id="217" value="" style="ellipse;whiteSpace=wrap;html=1;aspect=fixed;fontStyle=1" parent="1" vertex="1">
                    <mxGeometry x="1690" y="675" width="30" height="30" as="geometry"/>
                </mxCell>
                <mxCell id="219" value="" style="ellipse;whiteSpace=wrap;html=1;aspect=fixed;fontStyle=1" parent="1" vertex="1">
                    <mxGeometry x="1883" y="574" width="30" height="30" as="geometry"/>
                </mxCell>
                <mxCell id="220" value="" style="ellipse;whiteSpace=wrap;html=1;aspect=fixed;fontStyle=1" parent="1" vertex="1">
                    <mxGeometry x="1803" y="606" width="30" height="30" as="geometry"/>
                </mxCell>
                <mxCell id="222" value="" style="ellipse;whiteSpace=wrap;html=1;aspect=fixed;fontStyle=1" parent="1" vertex="1">
                    <mxGeometry x="1964" y="606" width="30" height="30" as="geometry"/>
                </mxCell>
                <mxCell id="224" value="" style="ellipse;whiteSpace=wrap;html=1;aspect=fixed;fontStyle=1" parent="1" vertex="1">
                    <mxGeometry x="1804" y="811" width="30" height="30" as="geometry"/>
                </mxCell>
                <mxCell id="226" value="" style="ellipse;whiteSpace=wrap;html=1;aspect=fixed;fontStyle=1" parent="1" vertex="1">
                    <mxGeometry x="1965" y="811" width="30" height="30" as="geometry"/>
                </mxCell>
                <mxCell id="228" value="" style="ellipse;whiteSpace=wrap;html=1;aspect=fixed;fontStyle=1" parent="1" vertex="1">
                    <mxGeometry x="1805" y="1028" width="30" height="30" as="geometry"/>
                </mxCell>
                <mxCell id="230" value="" style="ellipse;whiteSpace=wrap;html=1;aspect=fixed;fontStyle=1" parent="1" vertex="1">
                    <mxGeometry x="1966" y="1028" width="30" height="30" as="geometry"/>
                </mxCell>
                <mxCell id="231" value="" style="endArrow=none;html=1;strokeWidth=3;" parent="1" source="200" target="202" edge="1">
                    <mxGeometry width="50" height="50" relative="1" as="geometry">
                        <mxPoint x="1850" y="419" as="sourcePoint"/>
                        <mxPoint x="1900" y="369" as="targetPoint"/>
                    </mxGeometry>
                </mxCell>
                <mxCell id="232" value="" style="endArrow=none;html=1;strokeWidth=3;" parent="1" source="206" target="202" edge="1">
                    <mxGeometry width="50" height="50" relative="1" as="geometry">
                        <mxPoint x="1880" y="349" as="sourcePoint"/>
                        <mxPoint x="1930" y="299" as="targetPoint"/>
                    </mxGeometry>
                </mxCell>
                <mxCell id="233" value="" style="endArrow=none;html=1;strokeWidth=3;" parent="1" source="204" target="202" edge="1">
                    <mxGeometry width="50" height="50" relative="1" as="geometry">
                        <mxPoint x="1764.6793744141644" y="334.91520392745826" as="sourcePoint"/>
                        <mxPoint x="1895.3217532252113" y="307.09015721574497" as="targetPoint"/>
                    </mxGeometry>
                </mxCell>
                <mxCell id="234" value="" style="endArrow=none;html=1;strokeWidth=3;" parent="1" source="204" target="208" edge="1">
                    <mxGeometry width="50" height="50" relative="1" as="geometry">
                        <mxPoint x="1988" y="384" as="sourcePoint"/>
                        <mxPoint x="1862.6782467747885" y="292.09015721574497" as="targetPoint"/>
                    </mxGeometry>
                </mxCell>
                <mxCell id="235" value="" style="endArrow=none;html=1;strokeWidth=3;" parent="1" source="202" target="219" edge="1">
                    <mxGeometry width="50" height="50" relative="1" as="geometry">
                        <mxPoint x="2077.3736070551886" y="351.57855416105383" as="sourcePoint"/>
                        <mxPoint x="2144.564147781493" y="493.4508374347213" as="targetPoint"/>
                    </mxGeometry>
                </mxCell>
                <mxCell id="236" value="" style="endArrow=none;html=1;strokeWidth=3;" parent="1" source="206" target="210" edge="1">
                    <mxGeometry width="50" height="50" relative="1" as="geometry">
                        <mxPoint x="1957.9353454294182" y="308.999860374931" as="sourcePoint"/>
                        <mxPoint x="1956.060975104248" y="539.0001243549449" as="targetPoint"/>
                    </mxGeometry>
                </mxCell>
                <mxCell id="237" value="" style="endArrow=none;html=1;strokeWidth=3;" parent="1" source="219" target="220" edge="1">
                    <mxGeometry width="50" height="50" relative="1" as="geometry">
                        <mxPoint x="1743.6263929447443" y="351.57855416119696" as="sourcePoint"/>
                        <mxPoint x="1677.3665081434012" y="493.41811596074376" as="targetPoint"/>
                    </mxGeometry>
                </mxCell>
                <mxCell id="238" value="" style="endArrow=none;html=1;strokeWidth=3;" parent="1" source="219" target="222" edge="1">
                    <mxGeometry width="50" height="50" relative="1" as="geometry">
                        <mxPoint x="1896.4621444042" y="573.585295418049" as="sourcePoint"/>
                        <mxPoint x="1839.5481902389154" y="621.4271580914252" as="targetPoint"/>
                    </mxGeometry>
                </mxCell>
                <mxCell id="239" value="" style="endArrow=none;html=1;strokeWidth=3;" parent="1" source="208" target="212" edge="1">
                    <mxGeometry width="50" height="50" relative="1" as="geometry">
                        <mxPoint x="1838.5378555958" y="558.5852954180492" as="sourcePoint"/>
                        <mxPoint x="1896.4518097610849" y="606.4271580914257" as="targetPoint"/>
                    </mxGeometry>
                </mxCell>
                <mxCell id="240" value="" style="endArrow=none;html=1;strokeWidth=3;" parent="1" source="212" target="215" edge="1">
                    <mxGeometry width="50" height="50" relative="1" as="geometry">
                        <mxPoint x="2073.3423720225455" y="506.6228775986366" as="sourcePoint"/>
                        <mxPoint x="2104.5644099940855" y="639.3987424748643" as="targetPoint"/>
                    </mxGeometry>
                </mxCell>
                <mxCell id="241" value="" style="endArrow=none;html=1;strokeWidth=3;" parent="1" source="222" target="226" edge="1">
                    <mxGeometry width="50" height="50" relative="1" as="geometry">
                        <mxPoint x="2187.754317802022" y="683.9481863757323" as="sourcePoint"/>
                        <mxPoint x="2186.1805372815506" y="695.0465277670285" as="targetPoint"/>
                    </mxGeometry>
                </mxCell>
                <mxCell id="242" value="" style="endArrow=none;html=1;strokeWidth=3;" parent="1" source="220" target="224" edge="1">
                    <mxGeometry width="50" height="50" relative="1" as="geometry">
                        <mxPoint x="1989" y="646" as="sourcePoint"/>
                        <mxPoint x="1990" y="821" as="targetPoint"/>
                    </mxGeometry>
                </mxCell>
                <mxCell id="243" value="" style="endArrow=none;html=1;strokeWidth=3;" parent="1" source="210" target="214" edge="1">
                    <mxGeometry width="50" height="50" relative="1" as="geometry">
                        <mxPoint x="1936" y="636" as="sourcePoint"/>
                        <mxPoint x="1937" y="811" as="targetPoint"/>
                    </mxGeometry>
                </mxCell>
                <mxCell id="244" value="" style="endArrow=none;html=1;strokeWidth=3;" parent="1" source="214" target="217" edge="1">
                    <mxGeometry width="50" height="50" relative="1" as="geometry">
                        <mxPoint x="1753.3619656244582" y="511.5521375021674" as="sourcePoint"/>
                        <mxPoint x="1719.6156421928092" y="644.442282750005" as="targetPoint"/>
                    </mxGeometry>
                </mxCell>
                <mxCell id="245" value="" style="endArrow=none;html=1;strokeWidth=3;" parent="1" source="228" target="224" edge="1">
                    <mxGeometry width="50" height="50" relative="1" as="geometry">
                        <mxPoint x="1828" y="909" as="sourcePoint"/>
                        <mxPoint x="1829" y="821" as="targetPoint"/>
                    </mxGeometry>
                </mxCell>
                <mxCell id="246" value="" style="endArrow=none;html=1;strokeWidth=3;" parent="1" source="230" target="226" edge="1">
                    <mxGeometry width="50" height="50" relative="1" as="geometry">
                        <mxPoint x="1830" y="1038" as="sourcePoint"/>
                        <mxPoint x="1829" y="851" as="targetPoint"/>
                    </mxGeometry>
                </mxCell>
                <mxCell id="247" style="edgeStyle=orthogonalEdgeStyle;html=1;exitX=1;exitY=0.5;exitDx=0;exitDy=0;entryX=1;entryY=0.5;entryDx=0;entryDy=0;strokeWidth=3;fontSize=20;endArrow=none;endFill=0;strokeColor=#FF3333;" parent="1" source="250" target="215" edge="1">
                    <mxGeometry relative="1" as="geometry">
                        <Array as="points">
                            <mxPoint x="1960" y="10"/>
                            <mxPoint x="2130" y="10"/>
                            <mxPoint x="2130" y="685"/>
                        </Array>
                    </mxGeometry>
                </mxCell>
                <mxCell id="249" value="" style="ellipse;whiteSpace=wrap;html=1;aspect=fixed;fontStyle=1" parent="1" vertex="1">
                    <mxGeometry x="1883" y="489" width="30" height="30" as="geometry"/>
                </mxCell>
                <mxCell id="250" value="Upper Body" style="text;html=1;strokeColor=none;fillColor=none;align=center;verticalAlign=middle;whiteSpace=wrap;rounded=0;fontSize=29;" parent="1" vertex="1">
                    <mxGeometry x="1839.5" y="-31" width="120" height="80" as="geometry"/>
                </mxCell>
                <mxCell id="197" style="edgeStyle=orthogonalEdgeStyle;html=1;exitX=1;exitY=0.5;exitDx=0;exitDy=0;entryX=0.5;entryY=1;entryDx=0;entryDy=0;strokeWidth=3;fontSize=20;endArrow=none;endFill=0;strokeColor=#FF3333;" parent="1" source="198" target="250" edge="1">
                    <mxGeometry relative="1" as="geometry">
                        <mxPoint x="1966" y="103.99999999999989" as="targetPoint"/>
                        <Array as="points">
                            <mxPoint x="1950" y="160"/>
                            <mxPoint x="1950" y="99"/>
                            <mxPoint x="1900" y="99"/>
                        </Array>
                    </mxGeometry>
                </mxCell>
                <mxCell id="199" style="edgeStyle=orthogonalEdgeStyle;html=1;exitX=0.5;exitY=0;exitDx=0;exitDy=0;entryX=0.5;entryY=1;entryDx=0;entryDy=0;strokeWidth=3;fontSize=20;endArrow=none;endFill=0;strokeColor=#FF3333;" parent="1" source="200" target="250" edge="1">
                    <mxGeometry relative="1" as="geometry">
                        <mxPoint x="1966" y="103.99999999999989" as="targetPoint"/>
                        <Array as="points">
                            <mxPoint x="1950" y="243"/>
                            <mxPoint x="1950" y="99"/>
                            <mxPoint x="1900" y="99"/>
                        </Array>
                    </mxGeometry>
                </mxCell>
                <mxCell id="251" style="edgeStyle=orthogonalEdgeStyle;html=1;entryX=1;entryY=0.5;entryDx=0;entryDy=0;strokeWidth=3;fontSize=20;endArrow=none;endFill=0;strokeColor=#FF3333;exitX=0.5;exitY=0;exitDx=0;exitDy=0;" parent="1" source="252" target="220" edge="1">
                    <mxGeometry relative="1" as="geometry">
                        <mxPoint x="1930" y="1019" as="sourcePoint"/>
                        <Array as="points">
                            <mxPoint x="1898" y="779"/>
                            <mxPoint x="1860" y="779"/>
                            <mxPoint x="1860" y="621"/>
                        </Array>
                    </mxGeometry>
                </mxCell>
                <mxCell id="252" value="Lower Body" style="text;html=1;strokeColor=none;fillColor=none;align=center;verticalAlign=middle;whiteSpace=wrap;rounded=0;fontSize=29;" parent="1" vertex="1">
                    <mxGeometry x="1836.5" y="1099" width="123" height="80" as="geometry"/>
                </mxCell>
                <mxCell id="201" style="edgeStyle=orthogonalEdgeStyle;html=1;entryX=0.5;entryY=1;entryDx=0;entryDy=0;strokeWidth=3;fontSize=20;endArrow=none;endFill=0;strokeColor=#FF3333;" parent="1" source="202" target="250" edge="1">
                    <mxGeometry relative="1" as="geometry">
                        <Array as="points">
                            <mxPoint x="1950" y="290"/>
                            <mxPoint x="1950" y="99"/>
                            <mxPoint x="1900" y="99"/>
                        </Array>
                    </mxGeometry>
                </mxCell>
                <mxCell id="203" style="edgeStyle=orthogonalEdgeStyle;html=1;exitX=1;exitY=0.5;exitDx=0;exitDy=0;entryX=1;entryY=0.5;entryDx=0;entryDy=0;strokeWidth=3;fontSize=20;endArrow=none;endFill=0;strokeColor=#FF3333;" parent="1" source="204" target="250" edge="1">
                    <mxGeometry relative="1" as="geometry">
                        <Array as="points">
                            <mxPoint x="2130" y="313"/>
                            <mxPoint x="2130" y="9"/>
                        </Array>
                    </mxGeometry>
                </mxCell>
                <mxCell id="205" style="edgeStyle=orthogonalEdgeStyle;html=1;exitX=0;exitY=0.5;exitDx=0;exitDy=0;entryX=0;entryY=0.5;entryDx=0;entryDy=0;strokeWidth=3;fontSize=20;endArrow=none;endFill=0;strokeColor=#FF3333;" parent="1" source="206" target="250" edge="1">
                    <mxGeometry relative="1" as="geometry">
                        <Array as="points">
                            <mxPoint x="1773" y="319"/>
                            <mxPoint x="1680" y="319"/>
                            <mxPoint x="1680" y="9"/>
                        </Array>
                    </mxGeometry>
                </mxCell>
                <mxCell id="207" style="edgeStyle=orthogonalEdgeStyle;html=1;exitX=1;exitY=0.5;exitDx=0;exitDy=0;entryX=1;entryY=0.5;entryDx=0;entryDy=0;strokeWidth=3;fontSize=20;endArrow=none;endFill=0;strokeColor=#FF3333;" parent="1" source="208" target="250" edge="1">
                    <mxGeometry relative="1" as="geometry">
                        <Array as="points">
                            <mxPoint x="2130" y="482"/>
                            <mxPoint x="2130" y="10"/>
                        </Array>
                    </mxGeometry>
                </mxCell>
                <mxCell id="209" style="edgeStyle=orthogonalEdgeStyle;html=1;entryX=0;entryY=0.5;entryDx=0;entryDy=0;strokeWidth=3;fontSize=20;endArrow=none;endFill=0;strokeColor=#FF3333;" parent="1" source="210" target="250" edge="1">
                    <mxGeometry relative="1" as="geometry">
                        <Array as="points">
                            <mxPoint x="1680" y="482"/>
                            <mxPoint x="1680" y="9"/>
                        </Array>
                    </mxGeometry>
                </mxCell>
                <mxCell id="211" style="edgeStyle=orthogonalEdgeStyle;html=1;entryX=1;entryY=0.5;entryDx=0;entryDy=0;strokeWidth=3;fontSize=20;endArrow=none;endFill=0;strokeColor=#FF3333;" parent="1" source="212" target="250" edge="1">
                    <mxGeometry relative="1" as="geometry">
                        <Array as="points">
                            <mxPoint x="2130" y="644"/>
                            <mxPoint x="2130" y="10"/>
                        </Array>
                    </mxGeometry>
                </mxCell>
                <mxCell id="213" style="edgeStyle=orthogonalEdgeStyle;html=1;entryX=0;entryY=0.5;entryDx=0;entryDy=0;strokeWidth=3;fontSize=20;endArrow=none;endFill=0;strokeColor=#FF3333;" parent="1" source="214" target="250" edge="1">
                    <mxGeometry relative="1" as="geometry">
                        <Array as="points">
                            <mxPoint x="1680" y="650"/>
                            <mxPoint x="1680" y="9"/>
                        </Array>
                    </mxGeometry>
                </mxCell>
                <mxCell id="216" style="edgeStyle=orthogonalEdgeStyle;html=1;exitX=0;exitY=0.5;exitDx=0;exitDy=0;entryX=0;entryY=0.5;entryDx=0;entryDy=0;strokeWidth=3;fontSize=20;endArrow=none;endFill=0;strokeColor=#FF3333;" parent="1" source="217" target="250" edge="1">
                    <mxGeometry relative="1" as="geometry">
                        <mxPoint x="1652.5" y="660" as="targetPoint"/>
                    </mxGeometry>
                </mxCell>
                <mxCell id="248" style="edgeStyle=orthogonalEdgeStyle;html=1;exitX=1;exitY=0.5;exitDx=0;exitDy=0;entryX=0.5;entryY=1;entryDx=0;entryDy=0;strokeWidth=3;fontSize=20;endArrow=none;endFill=0;strokeColor=#FF3333;" parent="1" source="249" target="250" edge="1">
                    <mxGeometry relative="1" as="geometry">
                        <Array as="points">
                            <mxPoint x="1950" y="504"/>
                            <mxPoint x="1950" y="99"/>
                            <mxPoint x="1900" y="99"/>
                        </Array>
                    </mxGeometry>
                </mxCell>
                <mxCell id="218" style="edgeStyle=orthogonalEdgeStyle;html=1;exitX=0.5;exitY=1;exitDx=0;exitDy=0;entryX=0.5;entryY=0;entryDx=0;entryDy=0;strokeColor=#FF3333;strokeWidth=3;fontSize=20;endArrow=none;endFill=0;" parent="1" source="219" target="252" edge="1">
                    <mxGeometry relative="1" as="geometry"/>
                </mxCell>
                <mxCell id="221" style="edgeStyle=orthogonalEdgeStyle;html=1;exitX=0;exitY=0.5;exitDx=0;exitDy=0;entryX=0.5;entryY=0;entryDx=0;entryDy=0;strokeWidth=3;fontSize=20;endArrow=none;endFill=0;strokeColor=#FF3333;" parent="1" source="222" target="252" edge="1">
                    <mxGeometry relative="1" as="geometry">
                        <Array as="points">
                            <mxPoint x="1940" y="621"/>
                            <mxPoint x="1940" y="779"/>
                            <mxPoint x="1898" y="779"/>
                        </Array>
                    </mxGeometry>
                </mxCell>
                <mxCell id="223" style="edgeStyle=orthogonalEdgeStyle;html=1;exitX=1;exitY=0.5;exitDx=0;exitDy=0;entryX=0.5;entryY=0;entryDx=0;entryDy=0;strokeWidth=3;fontSize=20;endArrow=none;endFill=0;strokeColor=#FF3333;" parent="1" source="224" target="252" edge="1">
                    <mxGeometry relative="1" as="geometry">
                        <Array as="points">
                            <mxPoint x="1860" y="826"/>
                            <mxPoint x="1860" y="970"/>
                            <mxPoint x="1898" y="970"/>
                        </Array>
                    </mxGeometry>
                </mxCell>
                <mxCell id="225" style="edgeStyle=orthogonalEdgeStyle;html=1;exitX=0;exitY=0.5;exitDx=0;exitDy=0;strokeWidth=3;fontSize=20;endArrow=none;endFill=0;strokeColor=#FF3333;entryX=0.5;entryY=0;entryDx=0;entryDy=0;" parent="1" source="226" target="252" edge="1">
                    <mxGeometry relative="1" as="geometry">
                        <mxPoint x="1930" y="879" as="targetPoint"/>
                        <Array as="points">
                            <mxPoint x="1940" y="826"/>
                            <mxPoint x="1940" y="969"/>
                            <mxPoint x="1898" y="969"/>
                        </Array>
                    </mxGeometry>
                </mxCell>
                <mxCell id="227" style="edgeStyle=orthogonalEdgeStyle;html=1;entryX=0.5;entryY=0;entryDx=0;entryDy=0;strokeWidth=3;fontSize=20;endArrow=none;endFill=0;strokeColor=#FF3333;exitX=1;exitY=0.5;exitDx=0;exitDy=0;" parent="1" source="228" target="252" edge="1">
                    <mxGeometry relative="1" as="geometry">
                        <mxPoint x="1740" y="1079" as="sourcePoint"/>
                        <Array as="points">
                            <mxPoint x="1860" y="1043"/>
                            <mxPoint x="1860" y="1079"/>
                            <mxPoint x="1898" y="1079"/>
                        </Array>
                    </mxGeometry>
                </mxCell>
                <mxCell id="229" style="edgeStyle=orthogonalEdgeStyle;html=1;exitX=0;exitY=0.5;exitDx=0;exitDy=0;strokeWidth=3;fontSize=20;endArrow=none;endFill=0;strokeColor=#FF3333;entryX=0.5;entryY=0;entryDx=0;entryDy=0;" parent="1" source="230" target="252" edge="1">
                    <mxGeometry relative="1" as="geometry">
                        <mxPoint x="1950" y="969" as="targetPoint"/>
                        <Array as="points">
                            <mxPoint x="1940" y="1043"/>
                            <mxPoint x="1940" y="1079"/>
                            <mxPoint x="1898" y="1079"/>
                        </Array>
                    </mxGeometry>
                </mxCell>
            </root>
        </mxGraphModel>
    </diagram>
</mxfile>